<mxfile host="app.diagrams.net" modified="2023-12-11T10:30:27.768Z" agent="Mozilla/5.0 (Windows NT 10.0; Win64; x64) AppleWebKit/537.36 (KHTML, like Gecko) Chrome/119.0.0.0 Safari/537.36" version="22.1.7" etag="pT9C2UQ3726LTKGO0_MK" type="github">
  <diagram name="Page-1" id="-T78Bv2bJHtA2ceOv2MF">
    <mxGraphModel>
      <root>
        <mxCell id="0" />
        <mxCell id="1" parent="0" />
      </root>
    </mxGraphModel>
  </diagram>
</mxfile>
